<svg version="1.1" xmlns="http://www.w3.org/2000/svg" viewBox="0 0 490 490"
    style="enable-background:new 0 0 490 490;" xml:space="preserve">
<g>
	<path
        d="M247.144,260.552c-60.978,0-110.409,49.432-110.409,110.409h220.818C357.553,309.984,308.121,260.552,247.144,260.552z" />
    <polygon points="138.171,228.76 166.449,200.477 194.726,228.76 216.379,207.107 188.1,178.823 216.379,150.538 194.726,128.885
		166.449,157.168 138.171,128.885 116.519,150.538 144.798,178.823 116.519,207.107 	" />
    <polygon points="351.829,128.885 323.551,157.168 295.274,128.885 273.621,150.538 301.9,178.823 273.621,207.107 295.274,228.76
		323.551,200.477 351.829,228.76 373.481,207.107 345.202,178.823 373.481,150.538 	" />
    <path d="M420.914,0H69.086C30.999,0,0,30.999,0,69.086v351.829C0,459.001,30.999,490,69.086,490h351.829
		C459.001,490,490,459.001,490,420.914V69.086C490,30.999,459.001,0,420.914,0z M459.375,420.914
		c0,21.204-17.257,38.461-38.461,38.461H69.086c-21.204,0-38.461-17.257-38.461-38.461V69.086c0-21.204,17.257-38.461,38.461-38.461
		h351.829c21.204,0,38.461,17.257,38.461,38.461V420.914z" />
</g>

</svg>
